# xmcd
#
# Track frame offsets: 
#        150
#        9501
#        29296
#        48274
#        63001
#        76997
#        98592
#        115991
#        130329
#        144069
#        156026
#        167552
#        182531
#        200431
#
# Disc length: 2794 seconds
#
# Revision: 1
# Processed by: cddbd v1.5.2PL0 Copyright (c) Steve Scherf et al.
# Submitted via: ExactAudioCopy v0.95a5
#
DISCID=a20ae80e
DTITLE=Hem - Funnel Cloud
DYEAR=2006
DGENRE=Alt. Country-Rock
TTITLE0=We'll Meet Along the Way
TTITLE1=He Came to Meet Me
TTITLE2=Not California
TTITLE3=Funnel Cloud
TTITLE4=Too Late to Turn Back Now
TTITLE5=The Pills Stopped Working
TTITLE6=Hotel Fire
TTITLE7=Great Houses of New York
TTITLE8=Curtains
TTITLE9=Old Adam
TTITLE10=The Burnt-Over District
TTITLE11=Reservoir
TTITLE12=I'll Dream of You Tonight
TTITLE13=Almost Home
EXTD=
EXTT0=
EXTT1=
EXTT2=
EXTT3=
EXTT4=
EXTT5=
EXTT6=
EXTT7=
EXTT8=
EXTT9=
EXTT10=
EXTT11=
EXTT12=
EXTT13=
PLAYORDER=
